<?xml version="1.0" encoding="utf-8"?><svg xmlns="http://www.w3.org/2000/svg" viewBox="0 0 64.67 14.55"><defs><style>.cls-1{fill:#fff;}</style></defs><title>logo-white-2</title><g id="Layer_2" data-name="Layer 2"><g id="Layer_1-2" data-name="Layer 1"><g id="Layer_2-2" data-name="Layer 2"><g id="Layer_1-2-2" data-name="Layer 1-2"><path class="cls-1" d="M24.88,1.12H23V6.21h-.75V1.12H20.47V.5h4.41Z"/><path class="cls-1" d="M26.14,2.48a1.54,1.54,0,0,1,1.25-.59q1.34,0,1.36,1.52v2.8H28V3.4a1,1,0,0,0-.21-.68.84.84,0,0,0-.64-.22,1,1,0,0,0-.62.19,1.28,1.28,0,0,0-.42.49v3h-.71v-6h.73Z"/><path class="cls-1" d="M31.39,6.29A1.85,1.85,0,0,1,30,5.72a2.1,2.1,0,0,1-.54-1.51V4.07a2.55,2.55,0,0,1,.24-1.13,1.88,1.88,0,0,1,.67-.78,1.7,1.7,0,0,1,.94-.28,1.59,1.59,0,0,1,1.29.54A2.36,2.36,0,0,1,33,4v.3H30.17a1.51,1.51,0,0,0,.37,1,1.15,1.15,0,0,0,.89.39,1.26,1.26,0,0,0,.65-.16,1.63,1.63,0,0,0,.47-.42l.44.34A1.78,1.78,0,0,1,31.39,6.29Zm-.09-3.8a1,1,0,0,0-.74.32,1.55,1.55,0,0,0-.37.9h2.12V3.65a1.38,1.38,0,0,0-.3-.86A.91.91,0,0,0,31.3,2.49Z"/><path class="cls-1" d="M38.74,4.72H36.35l-.54,1.49H35L37.21.5h.66L40,6.21h-.77ZM36.57,4.1h1.94l-1-2.67Z"/><path class="cls-1" d="M41.19,2v.47a1.57,1.57,0,0,1,1.26-.55,1.21,1.21,0,0,1,1.21.68,1.61,1.61,0,0,1,.55-.49,1.63,1.63,0,0,1,.8-.19q1.4,0,1.42,1.48V6.21h-.72V3.41a1,1,0,0,0-.21-.68.91.91,0,0,0-.7-.23.94.94,0,0,0-1,.89V6.21h-.71V3.43a.81.81,0,0,0-.91-.92,1,1,0,0,0-1,.61v3.1h-.73V2Z"/><path class="cls-1" d="M50,6.21a1.53,1.53,0,0,1-.1-.45,1.62,1.62,0,0,1-1.21.53,1.5,1.5,0,0,1-1-.35,1.15,1.15,0,0,1-.4-.9,1.2,1.2,0,0,1,.5-1,2.38,2.38,0,0,1,1.42-.37h.71V3.31a.81.81,0,0,0-.23-.61A.91.91,0,0,0,49,2.47a1.06,1.06,0,0,0-.65.2.58.58,0,0,0-.26.47h-.76a1,1,0,0,1,.23-.61,1.54,1.54,0,0,1,.61-.47A2.06,2.06,0,0,1,49,1.89a1.68,1.68,0,0,1,1.15.37,1.32,1.32,0,0,1,.43,1v2a2.38,2.38,0,0,0,.15.93v.06Zm-1.2-.55a1.27,1.27,0,0,0,.65-.18A1.07,1.07,0,0,0,49.85,5V4.15h-.57q-1.33,0-1.33.78a.66.66,0,0,0,.23.53A.87.87,0,0,0,48.76,5.66Z"/><path class="cls-1" d="M52.19,5.62h2.48v.59H51.3V5.68l2.34-3.11h-2.3V2h3.21v.51Z"/><path class="cls-1" d="M55.29.84a.43.43,0,0,1,.11-.3.4.4,0,0,1,.32-.12A.41.41,0,0,1,56,.55a.43.43,0,0,1,.11.3.41.41,0,0,1-.11.29.42.42,0,0,1-.32.12.41.41,0,0,1-.32-.12A.42.42,0,0,1,55.29.84Zm.78,5.37h-.72V2h.72Z"/><path class="cls-1" d="M57.72,2v.53A1.55,1.55,0,0,1,59,1.89q1.34,0,1.36,1.52v2.8h-.73V3.4a1,1,0,0,0-.21-.68.84.84,0,0,0-.64-.22,1,1,0,0,0-.62.19,1.28,1.28,0,0,0-.42.49v3H57V2Z"/><path class="cls-1" d="M61.09,4a2.49,2.49,0,0,1,.46-1.58,1.58,1.58,0,0,1,2.43,0L64,2h.66V6.11a1.73,1.73,0,0,1-.49,1.3,1.8,1.8,0,0,1-1.31.47,2.18,2.18,0,0,1-.9-.2,1.54,1.54,0,0,1-.67-.54l.38-.44a1.42,1.42,0,0,0,1.14.58,1.11,1.11,0,0,0,.82-.3,1.14,1.14,0,0,0,.3-.84V5.79a1.49,1.49,0,0,1-1.19.5,1.45,1.45,0,0,1-1.21-.6A2.62,2.62,0,0,1,61.09,4Zm.73.08a1.9,1.9,0,0,0,.29,1.13,1,1,0,0,0,.82.41,1.06,1.06,0,0,0,1-.62V3.11a1.07,1.07,0,0,0-1-.61,1,1,0,0,0-.83.41,2.07,2.07,0,0,0-.28,1.23Z"/><path class="cls-1" d="M25.14,11a2.1,2.1,0,0,1-.67,1.4,2.19,2.19,0,0,1-1.5.49,2,2,0,0,1-1.62-.72,2.92,2.92,0,0,1-.61-1.94V9.7A3.25,3.25,0,0,1,21,8.3a2.12,2.12,0,0,1,.81-.93A2.24,2.24,0,0,1,23,7a2.06,2.06,0,0,1,1.46.51A2.12,2.12,0,0,1,25.14,9h-.76a1.64,1.64,0,0,0-.43-1A1.29,1.29,0,0,0,23,7.67a1.35,1.35,0,0,0-1.13.53,2.45,2.45,0,0,0-.41,1.52v.55a2.52,2.52,0,0,0,.39,1.48A1.25,1.25,0,0,0,23,12.3,1.45,1.45,0,0,0,24,12a1.58,1.58,0,0,0,.44-1Z"/><path class="cls-1" d="M25.66,10.68a2.5,2.5,0,0,1,.25-1.12,1.82,1.82,0,0,1,.68-.77,1.85,1.85,0,0,1,1-.27,1.79,1.79,0,0,1,1.4.6,2.31,2.31,0,0,1,.53,1.6v.05a2.52,2.52,0,0,1-.24,1.11,1.8,1.8,0,0,1-.68.77,1.88,1.88,0,0,1-1,.27,1.78,1.78,0,0,1-1.4-.6,2.3,2.3,0,0,1-.54-1.59Zm.73.09a1.81,1.81,0,0,0,.33,1.13,1.11,1.11,0,0,0,1.75,0,2,2,0,0,0,.33-1.21,1.81,1.81,0,0,0-.33-1.13,1,1,0,0,0-.88-.43,1,1,0,0,0-.87.43,2,2,0,0,0-.34,1.2Z"/><path class="cls-1" d="M30.91,8.6v.47a1.57,1.57,0,0,1,1.26-.55,1.21,1.21,0,0,1,1.21.68,1.61,1.61,0,0,1,.55-.49,1.63,1.63,0,0,1,.8-.19q1.4,0,1.42,1.48v2.84h-.73V10a1,1,0,0,0-.21-.68.91.91,0,0,0-.7-.23.94.94,0,0,0-1,.89v2.81H32.8V10.06a.81.81,0,0,0-.91-.92,1,1,0,0,0-1,.61v3.1h-.73V8.6Z"/><path class="cls-1" d="M40.64,10.76a2.54,2.54,0,0,1-.44,1.56,1.42,1.42,0,0,1-1.2.59,1.55,1.55,0,0,1-1.21-.49v2H37V8.6h.66v.47A1.49,1.49,0,0,1,39,8.52a1.45,1.45,0,0,1,1.21.58,2.57,2.57,0,0,1,.45,1.6Zm-.73-.08a1.87,1.87,0,0,0-.31-1.13,1,1,0,0,0-.84-.42,1.07,1.07,0,0,0-1,.58v2a1.07,1.07,0,0,0,1,.58,1,1,0,0,0,.83-.41,2,2,0,0,0,.33-1.2Z"/><path class="cls-1" d="M44,12.84a1.52,1.52,0,0,1-.1-.45,1.62,1.62,0,0,1-1.21.53,1.5,1.5,0,0,1-1-.35,1.15,1.15,0,0,1-.4-.9,1.2,1.2,0,0,1,.5-1,2.37,2.37,0,0,1,1.42-.37h.71V9.93a.81.81,0,0,0-.23-.61A.91.91,0,0,0,43,9.1a1.06,1.06,0,0,0-.65.2.58.58,0,0,0-.26.47h-.73a1,1,0,0,1,.23-.61,1.54,1.54,0,0,1,.61-.47,2,2,0,0,1,.8-.17,1.68,1.68,0,0,1,1.15.37,1.32,1.32,0,0,1,.43,1v2a2.39,2.39,0,0,0,.15.93v.06Zm-1.2-.55a1.27,1.27,0,0,0,.65-.18,1.06,1.06,0,0,0,.44-.46v-.87h-.57q-1.33,0-1.33.78a.66.66,0,0,0,.23.53.87.87,0,0,0,.55.19Z"/><path class="cls-1" d="M46.21,8.6v.53a1.55,1.55,0,0,1,1.27-.61q1.34,0,1.36,1.52v2.8h-.73V10a1,1,0,0,0-.21-.68.84.84,0,0,0-.64-.22,1,1,0,0,0-.62.19,1.28,1.28,0,0,0-.42.49v3H45.5V8.6Z"/><path class="cls-1" d="M51.14,11.77l1-3.18h.78l-1.7,4.9q-.4,1.06-1.26,1.06h-.15l-.27-.05v-.6h.2a1,1,0,0,0,.57-.15,1.08,1.08,0,0,0,.34-.54l.16-.43L49.29,8.6h.79Z"/><path class="cls-1" d="M12.57,6.9l3.11,6.52H9.46L12.57,6.9m0-1.17a.86.86,0,0,0-.79.5L8.47,13.17a.87.87,0,0,0,.79,1.25h6.63a.87.87,0,0,0,.79-1.25L13.36,6.23A.86.86,0,0,0,12.57,5.73Z"/><path class="cls-1" d="M.15,12.34,5.65.83a1.45,1.45,0,0,1,2.62,0l5.5,11.52a1.45,1.45,0,0,1-1.31,2.08h-11A1.45,1.45,0,0,1,.15,12.34Z"/></g></g></g></g></svg>