<?xml version="1.0" encoding="utf-8"?><svg xmlns="http://www.w3.org/2000/svg" viewBox="0 0 67.64 15.67"><defs><style>.cls-1{fill:#fff;}</style></defs><title>logo-white-4</title><g id="Layer_2" data-name="Layer 2"><g id="Layer_1-2" data-name="Layer 1"><g id="Layer_2-2" data-name="Layer 2"><g id="Layer_1-2-2" data-name="Layer 1-2"><path class="cls-1" d="M23.09,2.23H21.26V7.32h-.75V2.23H18.68V1.62h4.41Z"/><path class="cls-1" d="M24.35,3.59A1.54,1.54,0,0,1,25.61,3Q27,3,27,4.52v2.8h-.73V4.52A1,1,0,0,0,26,3.84a.84.84,0,0,0-.64-.22,1,1,0,0,0-.62.19,1.28,1.28,0,0,0-.42.49v3h-.73v-6h.73Z"/><path class="cls-1" d="M29.61,7.4a1.85,1.85,0,0,1-1.4-.57,2.1,2.1,0,0,1-.54-1.51V5.19a2.55,2.55,0,0,1,.24-1.13,1.88,1.88,0,0,1,.67-.78A1.7,1.7,0,0,1,29.52,3a1.59,1.59,0,0,1,1.29.54,2.36,2.36,0,0,1,.46,1.56v.3H28.39a1.51,1.51,0,0,0,.37,1,1.15,1.15,0,0,0,.89.39,1.26,1.26,0,0,0,.65-.16,1.63,1.63,0,0,0,.47-.42l.44.34A1.78,1.78,0,0,1,29.61,7.4Zm-.09-3.8a1,1,0,0,0-.74.32,1.55,1.55,0,0,0-.37.9h2.12V4.76a1.38,1.38,0,0,0-.3-.86A.91.91,0,0,0,29.52,3.6Z"/><path class="cls-1" d="M35,5.52l.11.75.16-.68,1.13-4H37l1.1,4,.16.69.12-.77.89-3.9h.76L38.7,7.32H38L36.84,3.16l-.09-.44-.09.44L35.44,7.32h-.69l-1.37-5.7h.75Z"/><path class="cls-1" d="M40.29,5.16A2.51,2.51,0,0,1,40.54,4a1.83,1.83,0,0,1,.68-.77,1.85,1.85,0,0,1,1-.27,1.79,1.79,0,0,1,1.4.6,2.31,2.31,0,0,1,.53,1.6v.05a2.52,2.52,0,0,1-.24,1.11,1.8,1.8,0,0,1-.68.77,1.88,1.88,0,0,1-1,.27,1.78,1.78,0,0,1-1.4-.6,2.3,2.3,0,0,1-.53-1.59Zm.73.09a1.81,1.81,0,0,0,.33,1.13,1.11,1.11,0,0,0,1.75,0,2,2,0,0,0,.33-1.21A1.81,1.81,0,0,0,43.1,4a1,1,0,0,0-.88-.43,1,1,0,0,0-.87.43A2,2,0,0,0,41,5.25Z"/><path class="cls-1" d="M45.55,3.08v.53A1.55,1.55,0,0,1,46.84,3q1.34,0,1.36,1.52v2.8h-.73V4.52a1,1,0,0,0-.21-.68.84.84,0,0,0-.64-.22,1,1,0,0,0-.62.19,1.28,1.28,0,0,0-.42.49v3h-.72V3.08Z"/><path class="cls-1" d="M48.91,5.17a2.48,2.48,0,0,1,.46-1.57,1.57,1.57,0,0,1,2.21-.25l.18.17V1.3h.72v6h-.67V6.85a1.48,1.48,0,0,1-1.21.53,1.45,1.45,0,0,1-1.2-.6,2.51,2.51,0,0,1-.46-1.58Zm.73.08a1.88,1.88,0,0,0,.3,1.13,1,1,0,0,0,.82.41,1.06,1.06,0,0,0,1-.62v-2a1.07,1.07,0,0,0-1-.6,1,1,0,0,0-.83.41A2.07,2.07,0,0,0,49.64,5.25Z"/><path class="cls-1" d="M55.18,7.4a1.85,1.85,0,0,1-1.4-.57,2.1,2.1,0,0,1-.54-1.51V5.19a2.54,2.54,0,0,1,.24-1.13,1.88,1.88,0,0,1,.67-.78A1.7,1.7,0,0,1,55.09,3a1.59,1.59,0,0,1,1.29.54,2.36,2.36,0,0,1,.46,1.56v.3H54a1.51,1.51,0,0,0,.37,1,1.15,1.15,0,0,0,.89.39,1.26,1.26,0,0,0,.65-.16,1.63,1.63,0,0,0,.47-.42l.44.34A1.78,1.78,0,0,1,55.18,7.4Zm-.09-3.8a1,1,0,0,0-.74.32,1.55,1.55,0,0,0-.37.9H56.1V4.76a1.38,1.38,0,0,0-.3-.86A.91.91,0,0,0,55.09,3.6Z"/><path class="cls-1" d="M59.52,3.73h-.36a1,1,0,0,0-1,.61v3h-.73V3.08h.71v.49a1.13,1.13,0,0,1,1-.57.74.74,0,0,1,.32,0Z"/><path class="cls-1" d="M60.4,7.32V3.64h-.67V3.08h.67V2.65a1.44,1.44,0,0,1,.36-1,1.38,1.38,0,0,1,1-.37,1.92,1.92,0,0,1,.5.07v.58a2.09,2.09,0,0,0-.39,0,.71.71,0,0,0-.54.21.84.84,0,0,0-.19.59v.45H62v.56h-.91V7.32Z"/><path class="cls-1" d="M65.25,6.9A1.54,1.54,0,0,1,64,7.4,1.32,1.32,0,0,1,63,7a1.71,1.71,0,0,1-.36-1.17V3.08h.73V5.82q0,1,.78,1a1.09,1.09,0,0,0,1.11-.62V3.08H66V7.32h-.69Z"/><path class="cls-1" d="M67.64,7.32h-.73v-6h.73Z"/><path class="cls-1" d="M23.35,12.14a2.1,2.1,0,0,1-.67,1.4,2.19,2.19,0,0,1-1.5.49,2,2,0,0,1-1.62-.72A2.92,2.92,0,0,1,19,11.36v-.55a3.25,3.25,0,0,1,.28-1.4A2.12,2.12,0,0,1,20,8.49a2.24,2.24,0,0,1,1.21-.32,2.06,2.06,0,0,1,1.46.51,2.12,2.12,0,0,1,.64,1.4h-.76a1.64,1.64,0,0,0-.43-1,1.29,1.29,0,0,0-.92-.31,1.35,1.35,0,0,0-1.13.53,2.45,2.45,0,0,0-.41,1.52v.55a2.52,2.52,0,0,0,.39,1.48,1.25,1.25,0,0,0,1.09.55,1.45,1.45,0,0,0,1-.28,1.58,1.58,0,0,0,.44-1Z"/><path class="cls-1" d="M23.87,11.79a2.5,2.5,0,0,1,.25-1.12,1.82,1.82,0,0,1,.68-.77,1.85,1.85,0,0,1,1-.27,1.79,1.79,0,0,1,1.4.6,2.31,2.31,0,0,1,.53,1.6v.05A2.52,2.52,0,0,1,27.49,13a1.8,1.8,0,0,1-.68.77,1.88,1.88,0,0,1-1,.27,1.78,1.78,0,0,1-1.4-.6,2.3,2.3,0,0,1-.54-1.59Zm.73.09A1.81,1.81,0,0,0,24.93,13a1.11,1.11,0,0,0,1.75,0A2,2,0,0,0,27,11.79a1.81,1.81,0,0,0-.33-1.13,1,1,0,0,0-.88-.43,1,1,0,0,0-.87.43,2,2,0,0,0-.32,1.21Z"/><path class="cls-1" d="M29.12,9.71v.47a1.57,1.57,0,0,1,1.26-.55,1.21,1.21,0,0,1,1.21.68,1.61,1.61,0,0,1,.55-.49,1.63,1.63,0,0,1,.8-.19q1.4,0,1.42,1.48V14h-.73v-2.8a1,1,0,0,0-.21-.68.91.91,0,0,0-.7-.23.94.94,0,0,0-1,.89v2.81H31V11.17a.81.81,0,0,0-.91-.92,1,1,0,0,0-1,.61V14h-.73V9.71Z"/><path class="cls-1" d="M38.86,11.87a2.54,2.54,0,0,1-.44,1.56,1.42,1.42,0,0,1-1.2.59A1.55,1.55,0,0,1,36,13.54v2h-.73V9.71h.66v.47a1.49,1.49,0,0,1,1.23-.55,1.45,1.45,0,0,1,1.21.58,2.57,2.57,0,0,1,.45,1.6Zm-.73-.08a1.87,1.87,0,0,0-.31-1.13,1,1,0,0,0-.84-.42,1.07,1.07,0,0,0-1,.58v2a1.07,1.07,0,0,0,1,.58,1,1,0,0,0,.83-.41A2,2,0,0,0,38.13,11.79Z"/><path class="cls-1" d="M42.19,13.95a1.52,1.52,0,0,1-.1-.45,1.62,1.62,0,0,1-1.21.53,1.5,1.5,0,0,1-1-.35,1.15,1.15,0,0,1-.4-.9,1.2,1.2,0,0,1,.5-1,2.37,2.37,0,0,1,1.42-.37h.71V11a.81.81,0,0,0-.23-.61.91.91,0,0,0-.67-.23,1.06,1.06,0,0,0-.65.2.58.58,0,0,0-.26.47h-.73a1,1,0,0,1,.23-.61,1.54,1.54,0,0,1,.61-.47,2,2,0,0,1,.85-.17,1.68,1.68,0,0,1,1.15.37,1.32,1.32,0,0,1,.43,1v2a2.39,2.39,0,0,0,.15.93v.06ZM41,13.4a1.27,1.27,0,0,0,.65-.18,1.06,1.06,0,0,0,.44-.46v-.87h-.57q-1.33,0-1.33.78a.66.66,0,0,0,.23.53A.87.87,0,0,0,41,13.4Z"/><path class="cls-1" d="M44.43,9.71v.53a1.55,1.55,0,0,1,1.27-.61q1.34,0,1.36,1.52v2.8h-.73V11.14a1,1,0,0,0-.21-.68.84.84,0,0,0-.64-.22,1,1,0,0,0-.62.19,1.28,1.28,0,0,0-.42.49v3h-.72V9.71Z"/><path class="cls-1" d="M49.36,12.89l1-3.18h.78l-1.7,4.9q-.4,1.06-1.26,1.06H48l-.27-.05V15h.2a1,1,0,0,0,.57-.15,1.08,1.08,0,0,0,.34-.54L49,13.9,47.51,9.71h.79Z"/><path class="cls-1" d="M4.73,15.42h0A4.37,4.37,0,0,1,.49,12.13L.08,10.37A2.64,2.64,0,0,1,2.64,7.08h0Z"/><path class="cls-1" d="M9.34,15.42H6L3.63,6.23A2.64,2.64,0,0,1,6.18,2.94h0Z"/><path class="cls-1" d="M10.56,15.42h0L7.46,3.29A2.64,2.64,0,0,1,10,0h0l3.1,12.13a2.64,2.64,0,0,1-2.54,3.29Z"/></g></g></g></g></svg>