<?xml version="1.0" encoding="utf-8"?><svg xmlns="http://www.w3.org/2000/svg" viewBox="0 0 66.15 15.42"><defs><style>.cls-1{fill:#fff;}</style></defs><title>logo-white-5</title><g id="Layer_2" data-name="Layer 2"><g id="Layer_1-2" data-name="Layer 1"><g id="Layer_2-2" data-name="Layer 2"><g id="Layer_1-2-2" data-name="Layer 1-2"><path class="cls-1" d="M23.31,1.73H21.48V6.82h-.75V1.73H18.9V1.11h4.41Z"/><path class="cls-1" d="M24.57,3.09a1.54,1.54,0,0,1,1.25-.59q1.34,0,1.36,1.52v2.8h-.73V4a1,1,0,0,0-.21-.68.84.84,0,0,0-.64-.22,1,1,0,0,0-.6.2,1.28,1.28,0,0,0-.42.49v3h-.73V.8h.73Z"/><path class="cls-1" d="M29.83,6.9a1.85,1.85,0,0,1-1.4-.57,2.1,2.1,0,0,1-.54-1.51V4.68a2.55,2.55,0,0,1,.24-1.13,1.88,1.88,0,0,1,.67-.78,1.7,1.7,0,0,1,.94-.28A1.59,1.59,0,0,1,31,3a2.36,2.36,0,0,1,.46,1.56v.3H28.61a1.51,1.51,0,0,0,.37,1,1.15,1.15,0,0,0,.89.39,1.26,1.26,0,0,0,.65-.16A1.63,1.63,0,0,0,31,5.73l.44.34A1.78,1.78,0,0,1,29.83,6.9Zm-.09-3.8a1,1,0,0,0-.74.32,1.55,1.55,0,0,0-.37.9h2.12V4.25a1.38,1.38,0,0,0-.3-.86.91.91,0,0,0-.71-.3Z"/><path class="cls-1" d="M34.82,6.82h-.75V1.11h.75Z"/><path class="cls-1" d="M36.57,2.58v.53a1.55,1.55,0,0,1,1.27-.61Q39.18,2.5,39.2,4v2.8h-.7V4a1,1,0,0,0-.21-.68.84.84,0,0,0-.64-.22,1,1,0,0,0-.65.2,1.28,1.28,0,0,0-.42.49v3h-.73V2.58Z"/><path class="cls-1" d="M41.82,6.3a1,1,0,0,0,.68-.24.83.83,0,0,0,.32-.59h.69a1.31,1.31,0,0,1-.25.69,1.65,1.65,0,0,1-.62.53,1.78,1.78,0,0,1-.82.2,1.75,1.75,0,0,1-1.38-.58,2.3,2.3,0,0,1-.51-1.58V4.61a2.55,2.55,0,0,1,.23-1.1,1.73,1.73,0,0,1,.65-.75,1.85,1.85,0,0,1,1-.27A1.7,1.7,0,0,1,43,2.93,1.53,1.53,0,0,1,43.5,4h-.69A1,1,0,0,0,41,3.46a1.87,1.87,0,0,0-.3,1.15v.14A1.83,1.83,0,0,0,41,5.91,1,1,0,0,0,41.82,6.3Z"/><path class="cls-1" d="M46.17,3.23h-.36a1,1,0,0,0-1,.61v3h-.72V2.58h.71v.49a1.13,1.13,0,0,1,1-.57.74.74,0,0,1,.32,0Z"/><path class="cls-1" d="M48.32,6.9a1.85,1.85,0,0,1-1.4-.57,2.1,2.1,0,0,1-.54-1.51V4.68a2.54,2.54,0,0,1,.24-1.13,1.88,1.88,0,0,1,.67-.78,1.7,1.7,0,0,1,.94-.28A1.59,1.59,0,0,1,49.51,3,2.36,2.36,0,0,1,50,4.6v.3H47.1a1.51,1.51,0,0,0,.37,1,1.15,1.15,0,0,0,.89.39A1.26,1.26,0,0,0,49,6.15a1.63,1.63,0,0,0,.47-.42l.44.34A1.78,1.78,0,0,1,48.32,6.9Zm-.09-3.8a1,1,0,0,0-.74.32,1.55,1.55,0,0,0-.37.9h2.12V4.25a1.38,1.38,0,0,0-.3-.86.91.91,0,0,0-.71-.3Z"/><path class="cls-1" d="M50.43,4.66a2.48,2.48,0,0,1,.46-1.57A1.57,1.57,0,0,1,53.29,3V.8H54v6h-.67V6.35a1.48,1.48,0,0,1-1.21.53,1.45,1.45,0,0,1-1.2-.6,2.51,2.51,0,0,1-.46-1.58Zm.73.08a1.88,1.88,0,0,0,.3,1.13,1,1,0,0,0,.82.41,1.06,1.06,0,0,0,1-.62V3.71a1.07,1.07,0,0,0-1-.6,1,1,0,0,0-.83.41A2.07,2.07,0,0,0,51.16,4.74Z"/><path class="cls-1" d="M54.94,1.45a.43.43,0,0,1,.11-.3A.4.4,0,0,1,55.37,1a.41.41,0,0,1,.32.12.43.43,0,0,1,.11.3.41.41,0,0,1-.11.29.42.42,0,0,1-.32.12A.41.41,0,0,1,55,1.75.42.42,0,0,1,54.94,1.45Zm.78,5.37H55V2.58h.73Z"/><path class="cls-1" d="M60.27,4.74a2.52,2.52,0,0,1-.45,1.56,1.43,1.43,0,0,1-1.2.59,1.48,1.48,0,0,1-1.24-.57v.49h-.67V.8h.73V3a1.47,1.47,0,0,1,1.21-.54A1.44,1.44,0,0,1,59.86,3a2.6,2.6,0,0,1,.44,1.6Zm-.72-.08a2,2,0,0,0-.29-1.14,1,1,0,0,0-.82-.4,1.06,1.06,0,0,0-1,.67V5.61a1.09,1.09,0,0,0,1,.67.94.94,0,0,0,.81-.4A2.09,2.09,0,0,0,59.55,4.66Z"/><path class="cls-1" d="M61.77,6.82H61V.8h.72Z"/><path class="cls-1" d="M64.49,6.9a1.85,1.85,0,0,1-1.4-.57,2.1,2.1,0,0,1-.54-1.51V4.68a2.54,2.54,0,0,1,.24-1.13,1.88,1.88,0,0,1,.67-.78,1.7,1.7,0,0,1,.94-.28A1.59,1.59,0,0,1,65.69,3a2.36,2.36,0,0,1,.46,1.56v.3H63.27a1.51,1.51,0,0,0,.37,1,1.15,1.15,0,0,0,.89.39,1.26,1.26,0,0,0,.65-.16,1.63,1.63,0,0,0,.47-.42l.44.34A1.78,1.78,0,0,1,64.49,6.9ZM64.4,3.1a1,1,0,0,0-.74.32,1.55,1.55,0,0,0-.37.9h2.12V4.25a1.38,1.38,0,0,0-.3-.86.91.91,0,0,0-.71-.3Z"/><path class="cls-1" d="M23.57,11.63A2.1,2.1,0,0,1,22.9,13a2.19,2.19,0,0,1-1.5.49,2,2,0,0,1-1.62-.72,2.92,2.92,0,0,1-.61-1.94v-.55a3.25,3.25,0,0,1,.28-1.4A2.12,2.12,0,0,1,20.26,8a2.24,2.24,0,0,1,1.21-.32,2.06,2.06,0,0,1,1.46.51,2.12,2.12,0,0,1,.64,1.4h-.76a1.64,1.64,0,0,0-.43-1,1.29,1.29,0,0,0-.92-.31,1.35,1.35,0,0,0-1.13.53,2.45,2.45,0,0,0-.41,1.52v.55a2.52,2.52,0,0,0,.39,1.48,1.25,1.25,0,0,0,1.09.55,1.45,1.45,0,0,0,1-.28,1.58,1.58,0,0,0,.44-1Z"/><path class="cls-1" d="M24.09,11.28a2.5,2.5,0,0,1,.25-1.12A1.82,1.82,0,0,1,25,9.39a1.85,1.85,0,0,1,1-.27,1.79,1.79,0,0,1,1.4.6,2.31,2.31,0,0,1,.53,1.6v.05a2.52,2.52,0,0,1-.24,1.11,1.8,1.8,0,0,1-.68.77,1.88,1.88,0,0,1-1,.27,1.78,1.78,0,0,1-1.4-.6,2.3,2.3,0,0,1-.54-1.59Zm.73.09a1.81,1.81,0,0,0,.33,1.13,1.11,1.11,0,0,0,1.75,0,2,2,0,0,0,.33-1.21,1.81,1.81,0,0,0-.33-1.13,1,1,0,0,0-.9-.44,1,1,0,0,0-.87.43A2,2,0,0,0,24.82,11.37Z"/><path class="cls-1" d="M29.34,9.2v.47a1.57,1.57,0,0,1,1.26-.55,1.21,1.21,0,0,1,1.21.68,1.61,1.61,0,0,1,.55-.49,1.63,1.63,0,0,1,.8-.19q1.4,0,1.42,1.48v2.84h-.73v-2.8a1,1,0,0,0-.21-.68.91.91,0,0,0-.7-.23.94.94,0,0,0-1,.89v2.81h-.73V10.66a.81.81,0,0,0-.91-.92,1,1,0,0,0-1,.61v3.1h-.73V9.2Z"/><path class="cls-1" d="M39.07,11.37a2.54,2.54,0,0,1-.44,1.56,1.42,1.42,0,0,1-1.2.59A1.55,1.55,0,0,1,36.22,13v2h-.73V9.2h.66v.47a1.49,1.49,0,0,1,1.23-.55,1.45,1.45,0,0,1,1.21.58A2.57,2.57,0,0,1,39,11.3Zm-.73-.08A1.87,1.87,0,0,0,38,10.15a1,1,0,0,0-.84-.42,1.07,1.07,0,0,0-1,.58v2a1.07,1.07,0,0,0,1,.58,1,1,0,0,0,.83-.41,2,2,0,0,0,.36-1.19Z"/><path class="cls-1" d="M42.41,13.44a1.52,1.52,0,0,1-.1-.45,1.62,1.62,0,0,1-1.21.53,1.5,1.5,0,0,1-1-.35,1.15,1.15,0,0,1-.4-.9,1.2,1.2,0,0,1,.5-1,2.37,2.37,0,0,1,1.42-.37h.71v-.33A.81.81,0,0,0,42.1,10a.91.91,0,0,0-.67-.23,1.06,1.06,0,0,0-.65.2.58.58,0,0,0-.26.47h-.73A1,1,0,0,1,40,9.77a1.54,1.54,0,0,1,.61-.47,2,2,0,0,1,.85-.17,1.68,1.68,0,0,1,1.15.37,1.32,1.32,0,0,1,.43,1v2a2.39,2.39,0,0,0,.15.93v.06Zm-1.2-.55a1.27,1.27,0,0,0,.65-.18,1.06,1.06,0,0,0,.44-.46v-.87h-.57q-1.33,0-1.33.78a.66.66,0,0,0,.23.53A.87.87,0,0,0,41.21,12.89Z"/><path class="cls-1" d="M44.65,9.2v.53a1.55,1.55,0,0,1,1.27-.61q1.34,0,1.36,1.52v2.8h-.73v-2.8a1,1,0,0,0-.21-.68.84.84,0,0,0-.64-.22,1,1,0,0,0-.62.19,1.28,1.28,0,0,0-.42.49v3H44V9.2Z"/><path class="cls-1" d="M49.58,12.38l1-3.18h.78l-1.7,4.9q-.4,1.06-1.26,1.06h-.14L48,15.09V14.5h.2a1,1,0,0,0,.57-.15,1.08,1.08,0,0,0,.34-.54l.16-.43L47.73,9.2h.79Z"/><path class="cls-1" d="M6.82,0A6.82,6.82,0,0,0,0,6.82H0c0,5.5,6.82,8.6,6.82,8.6s6.82-3.1,6.82-8.6A6.82,6.82,0,0,0,6.82,0Zm0,7.33a2.8,2.8,0,1,1,2.8-2.8,2.8,2.8,0,0,1-2.8,2.8Z"/></g></g></g></g></svg>