<?xml version="1.0" encoding="utf-8"?><svg xmlns="http://www.w3.org/2000/svg" viewBox="0 0 69.25 15.24"><defs><style>.cls-1{fill:#fff;}</style></defs><title>logo-white-3</title><g id="Layer_2" data-name="Layer 2"><g id="Layer_1-2" data-name="Layer 1"><g id="Layer_2-2" data-name="Layer 2"><g id="Layer_1-2-2" data-name="Layer 1-2"><polygon class="cls-1" points="12.94 0 4.66 0 8.8 7.17 12.94 0"/><polygon class="cls-1" points="17.55 7.38 13.5 0.37 13.43 0.35 9.32 7.47 17.53 7.47 17.55 7.38"/><polygon class="cls-1" points="4.14 0.3 0 7.47 8.28 7.47 4.14 0.3"/><polygon class="cls-1" points="0 8.07 4.14 15.24 8.28 8.07 0 8.07"/><polygon class="cls-1" points="9.32 8.07 13.46 15.24 17.6 8.07 9.32 8.07"/><path class="cls-1" d="M25.3,1.55H23.46V6.64h-.75V1.55H20.88V.93H25.3Z"/><path class="cls-1" d="M26.55,2.91a1.54,1.54,0,0,1,1.25-.59q1.34,0,1.36,1.52v2.8h-.73V3.83a1,1,0,0,0-.21-.68.84.84,0,0,0-.64-.22,1,1,0,0,0-.62.19,1.28,1.28,0,0,0-.42.49v3h-.73v-6h.73Z"/><path class="cls-1" d="M31.81,6.72a1.85,1.85,0,0,1-1.4-.57,2.1,2.1,0,0,1-.54-1.51V4.5a2.55,2.55,0,0,1,.24-1.13,1.88,1.88,0,0,1,.67-.78,1.7,1.7,0,0,1,.94-.28A1.59,1.59,0,0,1,33,2.87a2.36,2.36,0,0,1,.46,1.56v.3H30.59a1.51,1.51,0,0,0,.37,1,1.15,1.15,0,0,0,.89.39A1.26,1.26,0,0,0,32.5,6a1.63,1.63,0,0,0,.5-.44l.44.34A1.78,1.78,0,0,1,31.81,6.72Zm-.09-3.8a1,1,0,0,0-.74.32,1.55,1.55,0,0,0-.37.9h2.12V4.08a1.38,1.38,0,0,0-.3-.86A.91.91,0,0,0,31.72,2.92Z"/><path class="cls-1" d="M39.15,5.15H36.76l-.54,1.49h-.78L37.63.93h.66l2.18,5.71H39.7ZM37,4.53h1.94L38,1.86Z"/><path class="cls-1" d="M44.55,5.64l.82-3.24h.72L44.86,6.64h-.59l-1-3.21-1,3.21h-.59L40.41,2.4h.72L42,5.57,43,2.4h.58Z"/><path class="cls-1" d="M48.39,6.72A1.85,1.85,0,0,1,47,6.15a2.1,2.1,0,0,1-.54-1.51V4.5a2.55,2.55,0,0,1,.24-1.13,1.88,1.88,0,0,1,.67-.78,1.7,1.7,0,0,1,.94-.28,1.59,1.59,0,0,1,1.29.54A2.36,2.36,0,0,1,50,4.43v.3H47.17a1.51,1.51,0,0,0,.37,1,1.15,1.15,0,0,0,.89.39A1.26,1.26,0,0,0,49.08,6a1.63,1.63,0,0,0,.47-.42L50,5.9A1.78,1.78,0,0,1,48.39,6.72Zm-.09-3.8a1,1,0,0,0-.74.32,1.55,1.55,0,0,0-.37.9h2.12V4.08a1.38,1.38,0,0,0-.3-.86A.91.91,0,0,0,48.3,2.92Z"/><path class="cls-1" d="M53.15,5.52a.53.53,0,0,0-.22-.46,2.13,2.13,0,0,0-.77-.28,3.65,3.65,0,0,1-.87-.28,1.24,1.24,0,0,1-.48-.39.94.94,0,0,1-.15-.54,1.1,1.1,0,0,1,.44-.88,1.72,1.72,0,0,1,1.13-.36,1.77,1.77,0,0,1,1.17.37,1.18,1.18,0,0,1,.45,1H53.1a.66.66,0,0,0-.25-.51,1.12,1.12,0,0,0-1.26,0,.54.54,0,0,0-.22.45.44.44,0,0,0,.21.4,2.55,2.55,0,0,0,.75.25,3.91,3.91,0,0,1,.88.29,1.28,1.28,0,0,1,.5.41,1,1,0,0,1,.16.58,1.08,1.08,0,0,1-.45.91,1.91,1.91,0,0,1-1.18.34,2.14,2.14,0,0,1-.9-.18,1.47,1.47,0,0,1-.61-.5,1.21,1.21,0,0,1-.22-.7h.72a.75.75,0,0,0,.29.58,1.13,1.13,0,0,0,.72.21A1.17,1.17,0,0,0,52.9,6,.51.51,0,0,0,53.15,5.52Z"/><path class="cls-1" d="M54.42,4.48a2.51,2.51,0,0,1,.24-1.12,1.83,1.83,0,0,1,.68-.77,1.85,1.85,0,0,1,1-.27,1.79,1.79,0,0,1,1.4.6,2.31,2.31,0,0,1,.53,1.6v.05A2.52,2.52,0,0,1,58,5.68a1.8,1.8,0,0,1-.68.77,1.88,1.88,0,0,1-1,.27,1.78,1.78,0,0,1-1.4-.6,2.3,2.3,0,0,1-.53-1.59Zm.73.09a1.81,1.81,0,0,0,.33,1.13,1.11,1.11,0,0,0,1.75,0,2,2,0,0,0,.33-1.21,1.81,1.81,0,0,0-.33-1.13,1,1,0,0,0-.88-.43,1,1,0,0,0-.87.43A2,2,0,0,0,55.15,4.57Z"/><path class="cls-1" d="M59.67,2.4v.47A1.57,1.57,0,0,1,61,2.32,1.21,1.21,0,0,1,62.16,3a1.61,1.61,0,0,1,.55-.49,1.63,1.63,0,0,1,.8-.19q1.4,0,1.42,1.48V6.64h-.72V3.84A1,1,0,0,0,64,3.16a.91.91,0,0,0-.7-.23.94.94,0,0,0-1,.89V6.64H61.6V3.86a.81.81,0,0,0-.91-.92,1,1,0,0,0-1,.61v3.1H59V2.4Z"/><path class="cls-1" d="M67.59,6.72a1.85,1.85,0,0,1-1.4-.57,2.1,2.1,0,0,1-.54-1.51V4.5a2.54,2.54,0,0,1,.24-1.13,1.88,1.88,0,0,1,.67-.78,1.7,1.7,0,0,1,.94-.28,1.59,1.59,0,0,1,1.29.54,2.36,2.36,0,0,1,.46,1.56v.3H66.37a1.51,1.51,0,0,0,.37,1,1.15,1.15,0,0,0,.89.39,1.26,1.26,0,0,0,.65-.1,1.63,1.63,0,0,0,.47-.42l.44.34A1.78,1.78,0,0,1,67.59,6.72Zm-.09-3.8a1,1,0,0,0-.74.32,1.55,1.55,0,0,0-.37.9h2.12V4.08a1.38,1.38,0,0,0-.3-.86A.91.91,0,0,0,67.5,2.92Z"/><path class="cls-1" d="M25.55,11.46a2.1,2.1,0,0,1-.67,1.4,2.19,2.19,0,0,1-1.5.49,2,2,0,0,1-1.62-.72,2.92,2.92,0,0,1-.61-1.94v-.55a3.25,3.25,0,0,1,.28-1.4,2.12,2.12,0,0,1,.81-.93,2.24,2.24,0,0,1,1.21-.32A2.06,2.06,0,0,1,24.91,8a2.12,2.12,0,0,1,.64,1.4H24.8a1.64,1.64,0,0,0-.43-1,1.29,1.29,0,0,0-.92-.31,1.35,1.35,0,0,0-1.13.53,2.45,2.45,0,0,0-.41,1.52v.55a2.52,2.52,0,0,0,.39,1.48,1.25,1.25,0,0,0,1.09.55,1.45,1.45,0,0,0,1-.28,1.58,1.58,0,0,0,.44-1Z"/><path class="cls-1" d="M26.07,11.11A2.5,2.5,0,0,1,26.32,10,1.82,1.82,0,0,1,27,9.22a1.85,1.85,0,0,1,1-.27,1.79,1.79,0,0,1,1.4.6,2.31,2.31,0,0,1,.53,1.6v.05a2.52,2.52,0,0,1-.24,1.11,1.8,1.8,0,0,1-.68.77,1.88,1.88,0,0,1-1,.27,1.78,1.78,0,0,1-1.4-.6,2.3,2.3,0,0,1-.54-1.59Zm.73.09a1.81,1.81,0,0,0,.33,1.13,1.11,1.11,0,0,0,1.75,0,2,2,0,0,0,.33-1.21A1.81,1.81,0,0,0,28.88,10,1,1,0,0,0,28,9.54a1,1,0,0,0-.87.43,2,2,0,0,0-.33,1.22Z"/><path class="cls-1" d="M31.32,9v.47a1.57,1.57,0,0,1,1.26-.55,1.21,1.21,0,0,1,1.21.68,1.61,1.61,0,0,1,.55-.49,1.63,1.63,0,0,1,.8-.19q1.4,0,1.42,1.48v2.84h-.73v-2.8a1,1,0,0,0-.21-.68.91.91,0,0,0-.7-.23.94.94,0,0,0-1,.89v2.81h-.73V10.49a.81.81,0,0,0-.91-.92,1,1,0,0,0-1,.61v3.1h-.73V9Z"/><path class="cls-1" d="M41.06,11.19a2.54,2.54,0,0,1-.44,1.56,1.42,1.42,0,0,1-1.2.59,1.55,1.55,0,0,1-1.21-.49v2h-.73V9h.66v.47a1.49,1.49,0,0,1,1.23-.55,1.45,1.45,0,0,1,1.21.58A2.57,2.57,0,0,1,41,11.1Zm-.73-.08A1.87,1.87,0,0,0,40,10a1,1,0,0,0-.84-.42,1.07,1.07,0,0,0-1,.58v2a1.07,1.07,0,0,0,1,.58,1,1,0,0,0,.83-.41A2,2,0,0,0,40.33,11.11Z"/><path class="cls-1" d="M44.4,13.27a1.52,1.52,0,0,1-.1-.45,1.62,1.62,0,0,1-1.21.53,1.5,1.5,0,0,1-1-.35,1.15,1.15,0,0,1-.4-.9,1.2,1.2,0,0,1,.5-1,2.37,2.37,0,0,1,1.42-.37h.71V10.4a.81.81,0,0,0-.23-.61.91.91,0,0,0-.67-.23,1.06,1.06,0,0,0-.65.2.58.58,0,0,0-.26.47h-.73A1,1,0,0,1,42,9.59a1.54,1.54,0,0,1,.61-.47,2,2,0,0,1,.85-.17,1.68,1.68,0,0,1,1.15.37,1.32,1.32,0,0,1,.43,1v2a2.39,2.39,0,0,0,.15.93v.06Zm-1.2-.55a1.27,1.27,0,0,0,.65-.18,1.06,1.06,0,0,0,.44-.46v-.87h-.57q-1.33,0-1.33.78a.66.66,0,0,0,.23.53.87.87,0,0,0,.57.19Z"/><path class="cls-1" d="M46.63,9v.53a1.55,1.55,0,0,1,1.27-.61q1.34,0,1.36,1.52v2.8h-.73V10.46a1,1,0,0,0-.21-.68.84.84,0,0,0-.64-.22,1,1,0,0,0-.62.19,1.28,1.28,0,0,0-.42.49v3h-.72V9Z"/><path class="cls-1" d="M51.56,12.2l1-3.18h.78l-1.7,4.9Q51.22,15,50.36,15h-.14L50,14.92v-.59h.2a1,1,0,0,0,.57-.15,1.08,1.08,0,0,0,.34-.54l.16-.43L49.71,9h.79Z"/></g></g></g></g></svg>