<?xml version="1.0" encoding="utf-8"?><svg xmlns="http://www.w3.org/2000/svg" viewBox="0 0 62.58 15"><defs><style>.cls-1{fill:#fff;}</style></defs><title>logowhite-1</title><g id="Layer_2" data-name="Layer 2"><g id="Layer_1-2" data-name="Layer 1"><path class="cls-1" d="M23.86,1.61H22V6.7h-.75V1.61h-1.8V1h4.41Z"/><path class="cls-1" d="M25.12,3a1.54,1.54,0,0,1,1.25-.59q1.34,0,1.36,1.52V6.7H27V3.89a1,1,0,0,0-.21-.68A.84.84,0,0,0,26.15,3a1,1,0,0,0-.62.19,1.28,1.28,0,0,0-.42.49v3h-.73v-6h.73Z"/><path class="cls-1" d="M30.37,6.78A1.85,1.85,0,0,1,29,6.21a2.1,2.1,0,0,1-.54-1.52V4.56a2.54,2.54,0,0,1,.24-1.13,1.88,1.88,0,0,1,.67-.78,1.7,1.7,0,0,1,.94-.28,1.59,1.59,0,0,1,1.29.54A2.36,2.36,0,0,1,32,4.49v.3H29.15a1.51,1.51,0,0,0,.37,1,1.15,1.15,0,0,0,.89.39A1.26,1.26,0,0,0,31.06,6a1.64,1.64,0,0,0,.47-.42L32,6A1.78,1.78,0,0,1,30.37,6.78ZM30.28,3a1,1,0,0,0-.74.32,1.55,1.55,0,0,0-.37.9H31.3V4.14a1.38,1.38,0,0,0-.3-.86A.91.91,0,0,0,30.28,3Z"/><path class="cls-1" d="M38.78,6a1.74,1.74,0,0,1-.81.62,3.27,3.27,0,0,1-1.21.21,2.35,2.35,0,0,1-1.24-.33,2.18,2.18,0,0,1-.84-.93,3.22,3.22,0,0,1-.3-1.4v-.5a3,3,0,0,1,.6-2A2.1,2.1,0,0,1,36.67.92a2.16,2.16,0,0,1,1.44.46,2,2,0,0,1,.67,1.29H38a1.24,1.24,0,0,0-1.33-1.14h0a1.33,1.33,0,0,0-1.15.53,2.6,2.6,0,0,0-.39,1.54v.47a2.43,2.43,0,0,0,.44,1.53,1.42,1.42,0,0,0,1.19.57,2.63,2.63,0,0,0,.74-.09A1.14,1.14,0,0,0,38,5.75V4.47H36.71V3.86h2.07Z"/><path class="cls-1" d="M41.77,3.11h-.36a1,1,0,0,0-1,.61v3h-.73V2.46h.71V3a1.13,1.13,0,0,1,1-.57.74.74,0,0,1,.32.06Z"/><path class="cls-1" d="M43.92,6.78a1.85,1.85,0,0,1-1.4-.57A2.1,2.1,0,0,1,42,4.7V4.56a2.54,2.54,0,0,1,.24-1.13,1.88,1.88,0,0,1,.67-.78,1.7,1.7,0,0,1,.94-.28,1.59,1.59,0,0,1,1.29.54,2.36,2.36,0,0,1,.46,1.56v.3H42.7a1.51,1.51,0,0,0,.37,1,1.15,1.15,0,0,0,.89.39A1.26,1.26,0,0,0,44.61,6a1.64,1.64,0,0,0,.47-.42l.44.34A1.78,1.78,0,0,1,43.92,6.78ZM43.83,3a1,1,0,0,0-.74.32,1.55,1.55,0,0,0-.37.9h2.12V4.14a1.38,1.38,0,0,0-.3-.86A.91.91,0,0,0,43.83,3Z"/><path class="cls-1" d="M48.83,6.7a1.51,1.51,0,0,1-.1-.45,1.62,1.62,0,0,1-1.21.53,1.5,1.5,0,0,1-1-.35,1.15,1.15,0,0,1-.4-.9,1.2,1.2,0,0,1,.5-1A2.38,2.38,0,0,1,48,4.13h.71V3.8a.81.81,0,0,0-.23-.61A.91.91,0,0,0,47.82,3a1.06,1.06,0,0,0-.65.2.58.58,0,0,0-.26.47h-.73A1,1,0,0,1,46.4,3a1.54,1.54,0,0,1,.6-.45,2.05,2.05,0,0,1,.85-.17A1.68,1.68,0,0,1,49,2.75a1.32,1.32,0,0,1,.43,1v2a2.38,2.38,0,0,0,.15.93v0Zm-1.2-.55A1.27,1.27,0,0,0,48.27,6a1.07,1.07,0,0,0,.44-.46v-.9h-.57q-1.33,0-1.33.78A.66.66,0,0,0,47,6a.87.87,0,0,0,.62.15Z"/><path class="cls-1" d="M51.36,1.43v1h.79V3h-.79V5.65a.59.59,0,0,0,.11.38.45.45,0,0,0,.36.13,1.76,1.76,0,0,0,.34,0V6.7a2.12,2.12,0,0,1-.56.08.9.9,0,0,1-.73-.29,1.26,1.26,0,0,1-.25-.83V3h-.77V2.46h.77v-1Z"/><path class="cls-1" d="M54.56,6.78a1.85,1.85,0,0,1-1.4-.57,2.1,2.1,0,0,1-.54-1.52V4.56a2.54,2.54,0,0,1,.24-1.13,1.88,1.88,0,0,1,.67-.78,1.7,1.7,0,0,1,.94-.28,1.59,1.59,0,0,1,1.29.54,2.36,2.36,0,0,1,.46,1.56v.3H53.34a1.51,1.51,0,0,0,.37,1,1.15,1.15,0,0,0,.89.39A1.26,1.26,0,0,0,55.24,6a1.64,1.64,0,0,0,.47-.42l.44.34A1.78,1.78,0,0,1,54.56,6.78ZM54.47,3a1,1,0,0,0-.74.32,1.55,1.55,0,0,0-.37.9h2.12V4.14a1.38,1.38,0,0,0-.3-.86A.91.91,0,0,0,54.47,3Z"/><path class="cls-1" d="M59.32,5.58a.53.53,0,0,0-.22-.46,2.13,2.13,0,0,0-.77-.28,3.63,3.63,0,0,1-.87-.28A1.24,1.24,0,0,1,57,4.17a.94.94,0,0,1-.15-.54,1.1,1.1,0,0,1,.44-.88,1.72,1.72,0,0,1,1.13-.36,1.77,1.77,0,0,1,1.17.37,1.18,1.18,0,0,1,.45,1h-.73A.65.65,0,0,0,59,3.19a1.16,1.16,0,0,0-1.24,0,.54.54,0,0,0-.22.45.44.44,0,0,0,.21.4,2.56,2.56,0,0,0,.75.25,3.92,3.92,0,0,1,.88.29,1.28,1.28,0,0,1,.5.41,1,1,0,0,1,.16.58,1.08,1.08,0,0,1-.46.91,1.9,1.9,0,0,1-1.18.34,2.14,2.14,0,0,1-.9-.18,1.47,1.47,0,0,1-.61-.5,1.22,1.22,0,0,1-.22-.7h.72a.75.75,0,0,0,.29.58,1.13,1.13,0,0,0,.72.21A1.17,1.17,0,0,0,59.07,6,.51.51,0,0,0,59.32,5.58Z"/><path class="cls-1" d="M61.77,1.43v1h.79V3h-.79V5.65a.59.59,0,0,0,.11.38.45.45,0,0,0,.36.13,1.76,1.76,0,0,0,.34,0V6.7a2.12,2.12,0,0,1-.56.08.9.9,0,0,1-.73-.29A1.26,1.26,0,0,1,61,5.65V3h-.77V2.46H61v-1Z"/><path class="cls-1" d="M24.11,11.52a2.1,2.1,0,0,1-.67,1.4,2.19,2.19,0,0,1-1.5.49,2,2,0,0,1-1.62-.73,2.92,2.92,0,0,1-.61-1.94v-.55A3.25,3.25,0,0,1,20,8.79a2.12,2.12,0,0,1,.81-.93A2.24,2.24,0,0,1,22,7.54,2.06,2.06,0,0,1,23.47,8a2.12,2.12,0,0,1,.64,1.41h-.76a1.64,1.64,0,0,0-.43-1A1.29,1.29,0,0,0,22,8.16a1.35,1.35,0,0,0-1.13.53,2.45,2.45,0,0,0-.41,1.52v.55a2.52,2.52,0,0,0,.39,1.48,1.25,1.25,0,0,0,1.09.55,1.45,1.45,0,0,0,1-.28,1.58,1.58,0,0,0,.44-1Z"/><path class="cls-1" d="M24.63,11.17A2.51,2.51,0,0,1,24.88,10a1.83,1.83,0,0,1,.68-.77,1.86,1.86,0,0,1,1-.27,1.79,1.79,0,0,1,1.4.6,2.3,2.3,0,0,1,.54,1.59v.05a2.52,2.52,0,0,1-.24,1.11,1.8,1.8,0,0,1-.68.77,1.88,1.88,0,0,1-1,.27,1.78,1.78,0,0,1-1.4-.6,2.3,2.3,0,0,1-.54-1.59Zm.73.09a1.82,1.82,0,0,0,.33,1.13,1.11,1.11,0,0,0,1.75,0,2,2,0,0,0,.33-1.21A1.81,1.81,0,0,0,27.44,10a1,1,0,0,0-.88-.43,1,1,0,0,0-.87.43,2,2,0,0,0-.33,1.25Z"/><path class="cls-1" d="M29.88,9.09v.47A1.57,1.57,0,0,1,31.16,9a1.21,1.21,0,0,1,1.21.68,1.61,1.61,0,0,1,.55-.49,1.63,1.63,0,0,1,.8-.19q1.4,0,1.42,1.48v2.84h-.73v-2.8a1,1,0,0,0-.21-.68.92.92,0,0,0-.7-.23.94.94,0,0,0-1,.89v2.81h-.73V10.55a.81.81,0,0,0-.91-.92,1,1,0,0,0-1,.61v3.1H29.2V9.09Z"/><path class="cls-1" d="M39.62,11.25a2.54,2.54,0,0,1-.44,1.56,1.42,1.42,0,0,1-1.2.59,1.55,1.55,0,0,1-1.21-.49v2H36V9.09h.66v.47A1.49,1.49,0,0,1,38,9a1.45,1.45,0,0,1,1.21.58,2.57,2.57,0,0,1,.44,1.6Zm-.73-.08a1.87,1.87,0,0,0-.3-1.17,1,1,0,0,0-.84-.42,1.06,1.06,0,0,0-1,.58v2a1.07,1.07,0,0,0,1,.58,1,1,0,0,0,.83-.41A2,2,0,0,0,38.89,11.17Z"/><path class="cls-1" d="M43,13.33a1.51,1.51,0,0,1-.1-.45,1.62,1.62,0,0,1-1.21.53,1.5,1.5,0,0,1-1-.35,1.15,1.15,0,0,1-.4-.9,1.2,1.2,0,0,1,.5-1,2.38,2.38,0,0,1,1.42-.37h.71v-.33a.81.81,0,0,0-.23-.61A.91.91,0,0,0,42,9.62a1.06,1.06,0,0,0-.65.2.58.58,0,0,0-.26.47H40.3a1,1,0,0,1,.23-.61,1.54,1.54,0,0,1,.61-.47A2,2,0,0,1,42,9a1.68,1.68,0,0,1,1.15.37,1.32,1.32,0,0,1,.43,1v2a2.38,2.38,0,0,0,.15.93v.06Zm-1.2-.55a1.27,1.27,0,0,0,.65-.18,1.07,1.07,0,0,0,.44-.46v-.87h-.57q-1.33,0-1.33.78a.66.66,0,0,0,.23.53.87.87,0,0,0,.53.19Z"/><path class="cls-1" d="M45.19,9.09v.53A1.54,1.54,0,0,1,46.48,9q1.34,0,1.36,1.52v2.8h-.73v-2.8a1,1,0,0,0-.21-.68.84.84,0,0,0-.64-.22,1,1,0,0,0-.62.19,1.28,1.28,0,0,0-.42.49v3h-.73V9.09Z"/><path class="cls-1" d="M50.12,12.26l1-3.18h.78L50.18,14a1.34,1.34,0,0,1-1.26,1h-.41v-.59h.2a1,1,0,0,0,.57-.15,1.08,1.08,0,0,0,.34-.54l.16-.43-1.51-4.2h.79Z"/><path class="cls-1" d="M11.22,0H3.12A3.12,3.12,0,0,0,0,3.12v8.1a3.12,3.12,0,0,0,3.12,3.12h8.1a3.12,3.12,0,0,0,3.12-3.12V3.12A3.12,3.12,0,0,0,11.22,0Zm.69,5.68a.9.9,0,0,1-.9.9H8.66a.9.9,0,0,1-.9-.9V3.33a.9.9,0,0,1,.9-.9H11a.9.9,0,0,1,.9.9Z"/></g></g></svg>