<?xml version="1.0" encoding="utf-8"?><svg xmlns="http://www.w3.org/2000/svg" viewBox="0 0 54.87 8.5"><defs><style>.cls-1{fill:#fff;}</style></defs><title>beropad</title><g id="Layer_2" data-name="Layer 2"><g id="Layer_1-2" data-name="Layer 1"><polygon class="cls-1" points="5.47 7.2 0.7 0.11 0 0.11 0 8.39 0.7 8.39 0.7 1.31 5.46 8.39 6.16 8.39 6.16 0.11 5.47 0.11 5.47 7.2"/><polygon class="cls-1" points="9.83 4.42 13.7 4.42 13.7 3.83 9.83 3.83 9.13 3.83 9.13 8.39 14.28 8.39 14.28 7.79 9.83 7.79 9.83 4.42"/><polygon class="cls-1" points="14.25 0.7 14.25 0.11 9.13 0.11 9.13 0.7 9.83 0.7 14.25 0.7"/><path class="cls-1" d="M21.64,4a2.24,2.24,0,0,0,.47-1.4A2.24,2.24,0,0,0,21.36.76,3.07,3.07,0,0,0,19.3.11H16.61V8.39h.7V4.94h2.4l2,3.45h.74V8.31L20.39,4.79A2.38,2.38,0,0,0,21.64,4Zm-2.19.4H17.31V.7h2a2.31,2.31,0,0,1,1.56.48,1.71,1.71,0,0,1,.56,1.36,1.7,1.7,0,0,1-.53,1.3A2,2,0,0,1,19.46,4.35Z"/><path class="cls-1" d="M29.46.46a3.29,3.29,0,0,0-3.37,0A3.06,3.06,0,0,0,25,1.81a4.75,4.75,0,0,0-.4,2v.85a4.14,4.14,0,0,0,.89,2.8,2.94,2.94,0,0,0,2.34,1A3.09,3.09,0,0,0,29.48,8,3,3,0,0,0,30.6,6.7a4.78,4.78,0,0,0,.39-2v-1a4.69,4.69,0,0,0-.41-1.95A3,3,0,0,0,29.46.46Zm.84,4.22A3.75,3.75,0,0,1,29.64,7a2.43,2.43,0,0,1-3.7,0,3.66,3.66,0,0,1-.68-2.33V3.84a3.69,3.69,0,0,1,.68-2.37,2.43,2.43,0,0,1,3.69,0A3.66,3.66,0,0,1,30.3,3.8Z"/><path class="cls-1" d="M38.49.77a3,3,0,0,0-2-.66H33.63V.7H36.5A2.13,2.13,0,0,1,38,1.23a1.81,1.81,0,0,1,.53,1.37A1.73,1.73,0,0,1,38,3.94a2.24,2.24,0,0,1-1.55.48H33.63v4h.7V5h2.1a3.06,3.06,0,0,0,2.08-.63,2.27,2.27,0,0,0,.72-1.8A2.29,2.29,0,0,0,38.49.77Z"/><polygon class="cls-1" points="43.14 0.11 40.01 8.39 40.74 8.39 41.6 6.06 41.6 6.06 41.81 5.47 41.81 5.47 43.47 0.97 46.21 8.39 46.94 8.39 43.81 0.11 43.14 0.11"/><path class="cls-1" d="M54.42,1.9A3.2,3.2,0,0,0,53.16.58,3.6,3.6,0,0,0,51.34.11H49V8.39h2.26a3.71,3.71,0,0,0,1.87-.47A3.19,3.19,0,0,0,54.42,6.6a4.18,4.18,0,0,0,.45-2V3.87A4.18,4.18,0,0,0,54.42,1.9Zm-.24,2.68a3.35,3.35,0,0,1-.79,2.35,2.7,2.7,0,0,1-2.1.87H49.72V.7h1.62a2.65,2.65,0,0,1,2.05.86,3.27,3.27,0,0,1,.78,2.29Z"/></g></g></svg>