<?xml version="1.0" encoding="utf-8"?><svg xmlns="http://www.w3.org/2000/svg" viewBox="0 0 24 15"><defs><style>.cls-1{fill:#303237;}</style></defs><title>icon-gr-cloud</title><g id="Layer_2" data-name="Layer 2"><g id="Clone_Cloud" data-name="Clone Cloud"><g id="_Group_" data-name="&lt;Group&gt;"><path id="_Compound_Path_" data-name="&lt;Compound Path&gt;" class="cls-1" d="M15.5,15H3.5A3.5,3.5,0,0,1,3,8,6.5,6.5,0,0,1,15.49,6h0a4.5,4.5,0,0,1,0,9ZM9.5,3A5.51,5.51,0,0,0,4,8.5a.5.5,0,0,1-.5.5,2.5,2.5,0,0,0,0,5h12a3.5,3.5,0,0,0,0-7h-.14l-.15,0a.51.51,0,0,1-.52-.33A5.5,5.5,0,0,0,9.5,3Z"/></g><g id="_Group_2" data-name="&lt;Group&gt;"><path id="_Path_" data-name="&lt;Path&gt;" class="cls-1" d="M21.29,12.56a.5.5,0,0,1-.23-.95A3.49,3.49,0,0,0,19.5,5h-.14l-.15,0a.51.51,0,0,1-.52-.33A5.49,5.49,0,0,0,11.8,1.27a.5.5,0,1,1-.31-1,6.49,6.49,0,0,1,8,3.68h0a4.49,4.49,0,0,1,2,8.51A.49.49,0,0,1,21.29,12.56Z"/></g></g></g></svg>