<?xml version="1.0" encoding="utf-8"?><svg xmlns="http://www.w3.org/2000/svg" viewBox="0 0 24 24"><defs><style>.cls-1{fill:#303237;}</style></defs><title>icon-gr-pen</title><g id="Layer_2" data-name="Layer 2"><g id="Pen_Tool" data-name="Pen Tool"><g id="_Group_" data-name="&lt;Group&gt;"><g id="_Group_2" data-name="&lt;Group&gt;"><path id="_Compound_Path_" data-name="&lt;Compound Path&gt;" class="cls-1" d="M.5,24a.5.5,0,0,1-.26-.07l-.08-.06A.5.5,0,0,1,0,23.63a.46.46,0,0,1,0-.08.5.5,0,0,1,0-.16l2-10a.5.5,0,0,1,.19-.3l8-6a.5.5,0,0,1,.65,0l6,6a.5.5,0,0,1,0,.65l-6,8a.5.5,0,0,1-.3.19L.6,24Zm7-8a.5.5,0,0,1,.35.85L2,22.69,10.21,21l5.62-7.5L10.45,8.16,3,13.79,1.31,22l5.83-5.83A.5.5,0,0,1,7.5,16Z"/></g><g id="_Group_3" data-name="&lt;Group&gt;"><path id="_Compound_Path_2" data-name="&lt;Compound Path&gt;" class="cls-1" d="M18.5,13a.5.5,0,0,1-.35-.15l-7-7a.5.5,0,0,1,0-.67l4-5A.5.5,0,0,1,15.5,0h8a.5.5,0,0,1,.5.5v8a.5.5,0,0,1-.19.39l-5,4A.5.5,0,0,1,18.5,13ZM12.17,5.46l6.37,6.37L23,8.26V1H15.74Z"/></g><g id="_Group_4" data-name="&lt;Group&gt;"><path id="_Compound_Path_3" data-name="&lt;Compound Path&gt;" class="cls-1" d="M9,17a2,2,0,1,1,2-2A2,2,0,0,1,9,17Zm0-3a1,1,0,1,0,1,1A1,1,0,0,0,9,14Z"/></g></g></g></g></svg>