<?xml version="1.0" encoding="utf-8"?><svg xmlns="http://www.w3.org/2000/svg" viewBox="0 0 21.66 18.08"><defs><style>.cls-1{fill:#303237;}</style></defs><title>twitter-gr</title><g id="Layer_2" data-name="Layer 2"><g id="Twitter_1" data-name="Twitter 1"><g id="_Group_" data-name="&lt;Group&gt;"><path id="_Path_" data-name="&lt;Path&gt;" class="cls-1" d="M1.2,1.15a12.39,12.39,0,0,0,9.37,4.47c-.27-1-.18-3.57,1.72-4.74a4.57,4.57,0,0,1,5.91.45A10.14,10.14,0,0,0,21,.18a4.31,4.31,0,0,1-1.9,2.47A8.5,8.5,0,0,0,21.66,2a8.82,8.82,0,0,1-2.22,2.35C20.5,12,11.53,22.34,0,16.23a8.89,8.89,0,0,0,6.6-2.08A5,5,0,0,1,1.88,11.3,2.77,2.77,0,0,0,4.36,11a4.92,4.92,0,0,1-4-4.47,2.79,2.79,0,0,0,2.28.57A4.51,4.51,0,0,1,1.2,1.15Z"/></g></g></g></svg>