<?xml version="1.0" encoding="utf-8"?><svg xmlns="http://www.w3.org/2000/svg" viewBox="0 0 24 20"><defs><style>.cls-1{fill:#303237;}</style></defs><title>icon-gr-collaborate</title><g id="Layer_2" data-name="Layer 2"><g id="Share_Cloud" data-name="Share Cloud"><g id="_Group_" data-name="&lt;Group&gt;"><g id="_Group_2" data-name="&lt;Group&gt;"><path id="_Compound_Path_" data-name="&lt;Compound Path&gt;" class="cls-1" d="M18.5,9h-8A2.5,2.5,0,0,1,10,4a4.49,4.49,0,0,1,8.21-2h.27a3.5,3.5,0,0,1,0,7Zm-4-8A3.5,3.5,0,0,0,11,4.5a.5.5,0,0,1-.5.5,1.5,1.5,0,0,0,0,3h8a2.5,2.5,0,1,0-.44-5,.51.51,0,0,1-.52-.25A3.5,3.5,0,0,0,14.5,1Z"/></g><g id="_Group_3" data-name="&lt;Group&gt;"><g id="_Group_4" data-name="&lt;Group&gt;"><path id="_Compound_Path_2" data-name="&lt;Compound Path&gt;" class="cls-1" d="M3.5,18H.5a.5.5,0,0,1-.5-.5v-9a.5.5,0,0,1,.16-.36A.49.49,0,0,1,.53,8c1,.06,4.46.32,5.31,1.14A.5.5,0,0,1,6,9.58a52.39,52.39,0,0,1-2,8.11A.5.5,0,0,1,3.5,18ZM1,17H3.14A52.6,52.6,0,0,0,5,9.78a15.21,15.21,0,0,0-4-.71Z"/></g><g id="_Group_5" data-name="&lt;Group&gt;"><path id="_Path_" data-name="&lt;Path&gt;" class="cls-1" d="M13.4,20a5.74,5.74,0,0,1-2.07-.5L3.84,17a.5.5,0,0,1,.32-.95l7.5,2.5c1.8.68,1.95.74,6.15-1l5-2.25a2.27,2.27,0,0,0-2.32-.76l-3.83,1a.5.5,0,0,1-.24-1l3.83-1a3.27,3.27,0,0,1,3.74,1.72.5.5,0,0,1-.24.68l-5.5,2.5C15.6,19.56,14.41,20,13.4,20Z"/></g><g id="_Group_6" data-name="&lt;Group&gt;"><path id="_Path_2" data-name="&lt;Path&gt;" class="cls-1" d="M14.43,16a3.5,3.5,0,0,1-.69-.07L9.4,15A.5.5,0,0,1,9,14.44.49.49,0,0,1,9.6,14l4.34.87a2.49,2.49,0,0,0,1.1,0l1-.24c-.06-.91-.51-1.35-1.61-1.63l-9-2a.5.5,0,1,1,.22-1l9,2c1.66.41,2.39,1.29,2.39,2.83V15a.5.5,0,0,1-.38.49l-1.35.34A3.55,3.55,0,0,1,14.43,16Z"/></g></g></g></g></g></svg>