<?xml version="1.0" encoding="utf-8"?><svg xmlns="http://www.w3.org/2000/svg" viewBox="0 0 141.53 21.59"><defs><style>.cls-1{fill:#efae58;}</style></defs><title>Asset 5</title><g id="Layer_2" data-name="Layer 2"><g id="Layer_1-2" data-name="Layer 1"><path class="cls-1" d="M0,0V3.83H8.44V9.47H0V21.59H12.27V13.17h5.52v8.42h3.82V0ZM4.61,10.79h.93v.94H4.61Zm-1.87,0h.93v.94H2.74Zm4.52,8.05H2.74V14.32H7.26Zm.14-7.11H6.47v-.94H7.4Zm7.13-.12H10V7.09h4.52Zm0-5.52H10V1.57h4.52Zm5.52,5.52H15.53V7.09h4.52Zm0-5.52H15.53V1.57h4.52Z"/><path class="cls-1" d="M28.23,5.11h2.9a14.88,14.88,0,0,1,1.64.09,4.63,4.63,0,0,1,1.45.42,2.62,2.62,0,0,1,1,.94,3,3,0,0,1,.41,1.68,2.76,2.76,0,0,1-.76,2,3.51,3.51,0,0,1-2.09,1l3.23,5.24H34.4l-3.09-5.11H29.58v5.11H28.23Zm1.35,5h1.2l1.17,0a3.91,3.91,0,0,0,1.11-.21,1.91,1.91,0,0,0,.83-.56,1.59,1.59,0,0,0,.33-1.08,1.78,1.78,0,0,0-.24-1,1.53,1.53,0,0,0-.64-.57,2.93,2.93,0,0,0-.88-.27,8.22,8.22,0,0,0-1-.06H29.58Z"/><path class="cls-1" d="M43.19,5.11h7.15V6.36h-5.8V9.93H50v1.25H44.54v4.05h6.09v1.25H43.19Z"/><path class="cls-1" d="M61.55,5.11h1.27l4.84,11.37H66.09l-1.16-2.79H59.24l-1.17,2.79H56.54Zm.61,1.73h0l-2.36,5.59h4.64Z"/><path class="cls-1" d="M74.31,5.11h1.35V15.23h5.21v1.25H74.31Z"/><path class="cls-1" d="M87.49,5.11h1.35V15.23h5.21v1.25H87.49Z"/><path class="cls-1" d="M100.67,5.11h7.15V6.36H102V9.93h5.41v1.25H102v4.05h6.09v1.25h-7.44Z"/><path class="cls-1" d="M119,5.11h1.26l4.84,11.37h-1.57l-1.16-2.79h-5.69l-1.17,2.79H114Zm.61,1.73h0l-2.36,5.59h4.65Z"/><path class="cls-1" d="M131.58,5.11H136a6.4,6.4,0,0,1,1.19.12,6.67,6.67,0,0,1,1.24.41,6,6,0,0,1,1.19.74,4.92,4.92,0,0,1,1,1.08,5.65,5.65,0,0,1,.7,1.46,6.39,6.39,0,0,1,.25,1.88,6.36,6.36,0,0,1-.25,1.87,5.65,5.65,0,0,1-.7,1.46,4.92,4.92,0,0,1-1,1.08,6,6,0,0,1-1.19.74,6.67,6.67,0,0,1-1.24.41,6.4,6.4,0,0,1-1.19.12h-4.38Zm1.35,10.12h2.58a6.19,6.19,0,0,0,1.81-.26,3.85,3.85,0,0,0,1.45-.79,3.76,3.76,0,0,0,1-1.38,5,5,0,0,0,.36-2,5,5,0,0,0-.36-2,3.76,3.76,0,0,0-1-1.38,3.85,3.85,0,0,0-1.45-.79,6.19,6.19,0,0,0-1.81-.26h-2.58Z"/></g></g></svg>