<?xml version="1.0" encoding="utf-8"?><svg xmlns="http://www.w3.org/2000/svg" viewBox="0 0 131.23 131.23"><defs><style>.cls-1{fill:#eca24c;}.cls-2{fill:#fff;}</style></defs><title>check01</title><g id="Layer_2" data-name="Layer 2"><g id="Layer_1-2" data-name="Layer 1"><circle class="cls-1" cx="65.61" cy="65.61" r="65.61"/><path class="cls-2" d="M57.35,76.74a3.92,3.92,0,0,1-2.82-1.17l-6.64-6.63a2,2,0,0,1,0-2.8l.74-.74a2,2,0,0,1,2.8,0l5.44,5.44a.67.67,0,0,0,.48.2.63.63,0,0,0,.47-.2L74.27,54.39a2,2,0,0,1,1.4-.57,2,2,0,0,1,1.4.58l.74.74a2,2,0,0,1,0,2.79L60.17,75.57A4,4,0,0,1,57.35,76.74Z"/><path class="cls-1" d="M75.67,54.82a1,1,0,0,1,.69.28l.74.74a1,1,0,0,1,0,1.38L59.46,74.86a3,3,0,0,1-4.23,0L48.6,68.23a1,1,0,0,1,0-1.38l.74-.74a1,1,0,0,1,1.38,0l5.44,5.44a1.67,1.67,0,0,0,1.19.49,1.65,1.65,0,0,0,1.18-.49L75,55.1a1,1,0,0,1,.69-.28m0-2a2.94,2.94,0,0,0-2.1.87L57.35,69.91l-5.22-5.22a3,3,0,0,0-4.2,0l-.75.75a3,3,0,0,0,0,4.2l6.64,6.64a5,5,0,0,0,7,0L78.52,58.64a3,3,0,0,0,0-4.21l-.75-.74a3,3,0,0,0-2.1-.87Z"/><path class="cls-2" d="M65,76.74a3.94,3.94,0,0,1-2.82-1.17l-6.63-6.63a2,2,0,0,1,0-2.8l.74-.74a2,2,0,0,1,2.79,0l5.44,5.44a.68.68,0,0,0,1,0L82,54.39a2,2,0,0,1,1.4-.57,1.93,1.93,0,0,1,1.39.58l.74.74a2,2,0,0,1,0,2.79L67.84,75.57A3.92,3.92,0,0,1,65,76.74Z"/><path class="cls-1" d="M83.34,54.82a1,1,0,0,1,.69.28l.75.74a1,1,0,0,1,0,1.38L67.13,74.86a3,3,0,0,1-4.22,0l-6.64-6.63a1,1,0,0,1,0-1.38l.74-.74a1,1,0,0,1,.69-.29,1,1,0,0,1,.69.29l5.45,5.44A1.63,1.63,0,0,0,65,72a1.67,1.67,0,0,0,1.19-.49L82.65,55.1a1,1,0,0,1,.69-.28m0-2a3,3,0,0,0-2.1.87L65,69.91l-5.21-5.22a3,3,0,0,0-4.21,0l-.74.75a3,3,0,0,0,0,4.2l6.63,6.64a5,5,0,0,0,7.06,0L86.19,58.64a3,3,0,0,0,0-4.21l-.74-.74a3,3,0,0,0-2.11-.87Z"/></g></g></svg>