<?xml version="1.0" encoding="utf-8"?><svg xmlns="http://www.w3.org/2000/svg" viewBox="0 0 83.45 83.45"><defs><style>.cls-1{fill:#eca24c;}.cls-2{fill:#fff;}</style></defs><title>heart</title><g id="Layer_2" data-name="Layer 2"><g id="Layer_1-2" data-name="Layer 1"><path class="cls-1" d="M63.29.56,43.49,5.87a35.72,35.72,0,0,0-16,9.25L4.69,37.89a16,16,0,0,0,0,22.64L22.92,78.76a16,16,0,0,0,22.64,0L68.33,56a35.68,35.68,0,0,0,9.25-16l5.31-19.8A16,16,0,0,0,63.29.56Zm5.78,21.85a5.67,5.67,0,1,1,0-8A5.68,5.68,0,0,1,69.07,22.41Z"/><path class="cls-2" d="M36.56,66a.6.6,0,0,1-.38.13.56.56,0,0,1-.37-.13c-.59-.46-14.43-11.29-14.43-21.14a8.32,8.32,0,0,1,14.8-5.22A8.32,8.32,0,0,1,51,44.84C51,54.69,37.15,65.52,36.56,66Z"/></g></g></svg>